<svg xmlns="http://www.w3.org/2000/svg" width="1050" height="590" viewBox="0 0 1050 590" role="img" aria-label="Lesson 11 finite-size scaling validation"><style>text{font-family:system-ui,-apple-system,sans-serif;fill:#20211f}.box{fill:#fffdf8;stroke:#d8d1c3}.ax{stroke:#444}.a{fill:none;stroke:#222;stroke-width:2}.ttl{font-size:18px;font-weight:650}.small{font-size:12px;fill:#716d66}.big{font-size:24px;font-weight:700}</style><rect width="1050" height="590" fill="#fff"/><text x="525" y="28" text-anchor="middle" font-size="22">Reproduction Lab · Lesson 11 · finite-size threshold fluctuations</text>
<rect class="box" x="35" y="48" width="450" height="225" rx="8"/><text class="ttl" x="55" y="72">1 · Real QEW: std(fc) decreases with L</text><line class="ax" x1="55" y1="235" x2="455" y2="235"/><line class="ax" x1="55" y1="80" x2="55" y2="235"/><polyline class="a" points="55.0,90.7 188.3,149.8 321.7,172.5 455.0,224.3"/><text class="small" x="55" y="255">48 independent disorder samples per L · variance-fit nu=1.504</text>
<rect class="box" x="535" y="48" width="480" height="225" rx="8"/><text class="ttl" x="555" y="72">2 · Synthetic nu=4/3 gold test</text><line class="ax" x1="555" y1="235" x2="955" y2="235"/><line class="ax" x1="555" y1="80" x2="555" y2="235"/><polyline class="a" points="555.0,90.7 688.3,133.9 821.7,172.8 955.0,224.3"/><text class="big" x="585" y="150">recovered nu = 1.319</text><text class="small" x="555" y="255">Same log-std vs log-L regression pipeline.</text>
<rect class="box" x="35" y="315" width="450" height="220" rx="8"/><text class="ttl" x="55" y="340">3 · Size-window stability is not closed</text><line class="ax" x1="55" y1="490" x2="455" y2="490"/><polyline class="a" points="55.0,449.0 255.0,480.3 455.0,359.7"/><text class="small" x="55" y="515">small3=1.557 · all4=1.504 · large3=1.710 · drift=0.206</text>
<rect class="box" x="535" y="315" width="480" height="220" rx="8"/><text class="ttl" x="555" y="340">4 · Quantile collapse is shallow, not decisive</text><line class="ax" x1="555" y1="490" x2="955" y2="490"/><polyline class="a" points="555.0,359.7 569.3,377.2 583.6,393.7 597.9,409.1 612.1,423.3 626.4,436.1 640.7,447.5 655.0,457.4 669.3,465.6 683.6,472.1 697.9,476.7 712.1,479.4 726.4,480.3 740.7,479.7 755.0,477.9 769.3,475.3 783.6,472.0 797.9,468.5 812.1,464.8 826.4,461.0 840.7,457.2 855.0,453.5 869.3,449.9 883.6,446.4 897.9,443.0 912.1,439.8 926.4,436.7 940.7,433.7 955.0,430.8"/><text class="small" x="555" y="515">best nu≈1.405 · score(best)=0.117 · score(4/3)=0.121</text></svg>